<?xml version="1.0" ?><svg id="Icons" style="enable-background:new 0 0 32 32;" version="1.1" viewBox="0 0 32 32" xml:space="preserve" xmlns="http://www.w3.org/2000/svg" xmlns:xlink="http://www.w3.org/1999/xlink"><style type="text/css">
	.st0{fill:none;stroke:#000000;stroke-width:2;stroke-linecap:round;stroke-linejoin:round;stroke-miterlimit:10;}
</style><path class="st0" d="M21.5,20.5c-2.1,2.1-2.1,5.4,0,7.5l7.5-7.5C26.9,18.5,23.6,18.5,21.5,20.5z"/><line class="st0" x1="28" x2="25.3" y1="27" y2="24.3"/><rect class="st0" height="17" transform="matrix(0.7071 -0.7071 0.7071 0.7071 -4.6777 12.7071)" width="5.7" x="10.2" y="3.5"/><line class="st0" x1="17.5" x2="20" y1="12.5" y2="10"/><line class="st0" x1="11" x2="13.5" y1="19" y2="16.5"/><rect class="st0" height="9.9" transform="matrix(0.7071 -0.7071 0.7071 0.7071 -13.2132 12.1005)" width="7.1" x="4.5" y="17.1"/><rect class="st0" height="9.9" transform="matrix(0.7071 -0.7071 0.7071 0.7071 1.7868 18.3137)" width="7.1" x="19.5" y="2.1"/><line class="st0" x1="5" x2="11" y1="19" y2="25"/><line class="st0" x1="20" x2="26" y1="4" y2="10"/></svg>