<svg viewBox="0 0 32 32" xml:space="preserve" xmlns="http://www.w3.org/2000/svg" enable-background="new 0 0 32 32"><path d="M21.5 20.5c-2.1 2.1-2.1 5.4 0 7.5l7.5-7.5c-2.1-2-5.4-2-7.5 0zM28 27l-2.7-2.7" fill="none" stroke="#1beba0" stroke-width="2" stroke-linecap="round" stroke-linejoin="round" stroke-miterlimit="10" class="stroke-000000"></path><path transform="rotate(-45.001 13 12)" d="M10.2 3.5h5.7v17h-5.7z" fill="none" stroke="#1beba0" stroke-width="2" stroke-linecap="round" stroke-linejoin="round" stroke-miterlimit="10" class="stroke-000000"></path><path d="M17.5 12.5 20 10M11 19l2.5-2.5" fill="none" stroke="#1beba0" stroke-width="2" stroke-linecap="round" stroke-linejoin="round" stroke-miterlimit="10" class="stroke-000000"></path><path transform="rotate(-45.001 8 22)" d="M4.5 17.1h7.1V27H4.5z" fill="none" stroke="#1beba0" stroke-width="2" stroke-linecap="round" stroke-linejoin="round" stroke-miterlimit="10" class="stroke-000000"></path><path transform="rotate(-45.001 23 7)" d="M19.5 2.1h7.1V12h-7.1z" fill="none" stroke="#1beba0" stroke-width="2" stroke-linecap="round" stroke-linejoin="round" stroke-miterlimit="10" class="stroke-000000"></path><path d="m5 19 6 6M20 4l6 6" fill="none" stroke="#1beba0" stroke-width="2" stroke-linecap="round" stroke-linejoin="round" stroke-miterlimit="10" class="stroke-000000"></path></svg>