<svg viewBox="0 0 24 24" xmlns="http://www.w3.org/2000/svg"><g display="inline"><path d="M-28-76.934c-4.412 0-8 3.588-8 8 0 .676.085 1.348.254 2H-38.5v7.868h21v-7.868h-2.754a8.014 8.014 0 0 0 .254-2c0-4.412-3.588-8-8-8zm0 1c.29 0 .587.13.908.446.322.315.644.813.918 1.449.345.799.6 1.83.752 2.973h-5.156c.153-1.144.407-2.174.752-2.973.274-.636.596-1.134.918-1.45.321-.315.619-.445.908-.445zm-2.09.317a6.504 6.504 0 0 0-.654 1.181c-.404.939-.686 2.098-.844 3.37h-3.08a7 7 0 0 1 4.578-4.551zm4.18 0a7 7 0 0 1 4.578 4.55h-3.08c-.158-1.271-.44-2.43-.844-3.369a6.504 6.504 0 0 0-.654-1.181zm-8.99 5.55h3.216c-.023.374-.048.746-.048 1.133 0 .716.054 1.348.138 2H-34.7a7.001 7.001 0 0 1-.299-2c0-.386.04-.763.1-1.132zm4.216 0h5.368c.025.372.048.745.048 1.133 0 .721-.053 1.337-.144 2h-5.176c-.09-.663-.144-1.279-.144-2 0-.388.023-.761.048-1.132zm6.368 0h3.216c.06.37.1.747.1 1.133 0 .679-.105 1.352-.299 2h-3.107c.084-.652.138-1.285.138-2 0-.387-.025-.76-.048-1.132zM-37.5-65.933h19v5.868h-19z" style="line-height:normal;font-variant-ligatures:normal;font-variant-position:normal;font-variant-caps:normal;font-variant-numeric:normal;font-variant-alternates:normal;font-variant-east-asian:normal;font-feature-settings:normal;font-variation-settings:normal;text-indent:0;text-align:start;text-decoration-line:none;text-decoration-style:solid;text-decoration-color:#000;text-transform:none;text-orientation:mixed;white-space:normal;shape-padding:0;shape-margin:0;inline-size:0;isolation:auto;mix-blend-mode:normal;solid-color:#000;solid-opacity:1" transform="translate(40 80)" color="#000000" font-style="normal" font-variant="normal" font-weight="400" font-stretch="normal" font-size="medium" font-family="sans-serif" text-decoration="none" letter-spacing="normal" word-spacing="normal" writing-mode="lr-tb" direction="ltr" dominant-baseline="auto" baseline-shift="baseline" text-anchor="start" clip-rule="nonzero" display="inline" overflow="visible" visibility="visible" opacity="1" color-interpolation="sRGB" color-interpolation-filters="linearRGB" vector-effect="none" fill="#1beba0" fill-opacity="1" fill-rule="nonzero" stroke="none" stroke-linecap="butt" stroke-linejoin="miter" stroke-miterlimit="4" stroke-dasharray="none" stroke-dashoffset="0" stroke-opacity="1" paint-order="fill markers stroke" color-rendering="auto" image-rendering="auto" shape-rendering="auto" text-rendering="auto" enable-background="accumulate" stop-color="#1beba0" stop-opacity="1" class="fill-000000 stop-color-000000"></path><g stroke-width="1.12637"><path d="m10.271 16.451-1.017.485 1.814 3.793.971-1.53 1.1 1.504 1.605-3.8-1.037-.44c-.28.656-.556 1.314-.834 1.97l-.9-1.23-.766 1.205c-.312-.652-.625-1.304-.936-1.957z" style="line-height:normal;font-variant-ligatures:normal;font-variant-position:normal;font-variant-caps:normal;font-variant-numeric:normal;font-variant-alternates:normal;font-variant-east-asian:normal;font-feature-settings:normal;font-variation-settings:normal;text-indent:0;text-align:start;text-decoration-line:none;text-decoration-style:solid;text-decoration-color:#000;text-transform:none;text-orientation:mixed;white-space:normal;shape-padding:0;shape-margin:0;inline-size:0;isolation:auto;mix-blend-mode:normal;solid-color:#000;solid-opacity:1" transform="matrix(.90853 0 0 .86756 1.098 .893)" color="#000000" font-style="normal" font-variant="normal" font-weight="400" font-stretch="normal" font-size="medium" font-family="sans-serif" text-decoration="none" letter-spacing="normal" word-spacing="normal" writing-mode="lr-tb" direction="ltr" dominant-baseline="auto" baseline-shift="baseline" text-anchor="start" clip-rule="nonzero" display="inline" overflow="visible" visibility="visible" opacity="1" color-interpolation="sRGB" color-interpolation-filters="linearRGB" vector-effect="none" fill="#1beba0" fill-opacity="1" fill-rule="nonzero" stroke="none" stroke-linecap="square" stroke-linejoin="miter" stroke-miterlimit="4" stroke-dasharray="none" stroke-dashoffset="0" stroke-opacity="1" color-rendering="auto" image-rendering="auto" shape-rendering="auto" text-rendering="auto" enable-background="accumulate" stop-color="#1beba0" stop-opacity="1" class="fill-000000 stop-color-000000"></path><g stroke-width="1.12637"><path d="m4.266 16.451-1.018.485 1.814 3.793.971-1.53 1.1 1.504 1.605-3.8-1.037-.44c-.28.656-.556 1.314-.834 1.97l-.9-1.23-.766 1.205-.935-1.957ZM16.402 16.451l-1.015.485 1.814 3.793.97-1.528 1.099 1.502c.536-1.267 1.068-2.535 1.607-3.8l-1.04-.44c-.276.658-.554 1.315-.831 1.973l-.9-1.233-.766 1.205c-.313-.652-.624-1.305-.938-1.957z" style="line-height:normal;font-variant-ligatures:normal;font-variant-position:normal;font-variant-caps:normal;font-variant-numeric:normal;font-variant-alternates:normal;font-variant-east-asian:normal;font-feature-settings:normal;font-variation-settings:normal;text-indent:0;text-align:start;text-decoration-line:none;text-decoration-style:solid;text-decoration-color:#000;text-transform:none;text-orientation:mixed;white-space:normal;shape-padding:0;shape-margin:0;inline-size:0;isolation:auto;mix-blend-mode:normal;solid-color:#000;solid-opacity:1" transform="matrix(.90853 0 0 .86756 1.04 .893)" color="#000000" font-style="normal" font-variant="normal" font-weight="400" font-stretch="normal" font-size="medium" font-family="sans-serif" text-decoration="none" letter-spacing="normal" word-spacing="normal" writing-mode="lr-tb" direction="ltr" dominant-baseline="auto" baseline-shift="baseline" text-anchor="start" clip-rule="nonzero" display="inline" overflow="visible" visibility="visible" opacity="1" color-interpolation="sRGB" color-interpolation-filters="linearRGB" vector-effect="none" fill="#1beba0" fill-opacity="1" fill-rule="nonzero" stroke="none" stroke-linecap="square" stroke-linejoin="miter" stroke-miterlimit="4" stroke-dasharray="none" stroke-dashoffset="0" stroke-opacity="1" color-rendering="auto" image-rendering="auto" shape-rendering="auto" text-rendering="auto" enable-background="accumulate" stop-color="#1beba0" stop-opacity="1" class="fill-000000 stop-color-000000"></path></g></g></g></svg>