<svg xmlns="http://www.w3.org/2000/svg" width="1876" height="1051.502" viewBox="0 0 1876 1051.502"><g transform="translate(-23 -49)"><rect width="20" height="48" transform="translate(23 958)" fill="#dadada"/><line y1="74" transform="translate(33.5 1006.5)" fill="none" stroke="#dadada" stroke-width="1"/><rect width="20" height="28" transform="translate(81 945)" fill="#dadada"/><line y1="107" transform="translate(91.5 973.5)" fill="none" stroke="#dadada" stroke-width="1"/><rect width="20" height="19" transform="translate(139 930)" fill="#dadada"/><line y1="131" transform="translate(149.5 949.5)" fill="none" stroke="#dadada" stroke-width="1"/><rect width="20" height="37" transform="translate(197 945)" fill="#dadada"/><line y1="98" transform="translate(207.5 982.5)" fill="none" stroke="#dadada" stroke-width="1"/><rect width="20" height="33" transform="translate(255 973)" fill="#dadada"/><line y1="74" transform="translate(265.5 1006.5)" fill="none" stroke="#dadada" stroke-width="1"/><rect width="20" height="33" transform="translate(313 949)" fill="#dadada"/><line y1="98" transform="translate(323.5 982.5)" fill="none" stroke="#dadada" stroke-width="1"/><rect width="20" height="65" transform="translate(371 875)" fill="#dadada"/><line y1="140" transform="translate(381.5 940.5)" fill="none" stroke="#dadada" stroke-width="1"/><rect width="20" height="36" transform="translate(429 839)" fill="#dadada"/><line y1="205" transform="translate(439.5 875.5)" fill="none" stroke="#dadada" stroke-width="1"/><rect width="20" height="55" transform="translate(487 875)" fill="#dadada"/><line y1="150" transform="translate(497.5 930.5)" fill="none" stroke="#dadada" stroke-width="1"/><rect width="20" height="38" transform="translate(545 930)" fill="#dadada"/><line y1="112" transform="translate(555.5 968.5)" fill="none" stroke="#dadada" stroke-width="1"/><rect width="20" height="31" transform="translate(603 899)" fill="#dadada"/><line y1="150" transform="translate(613.5 930.5)" fill="none" stroke="#dadada" stroke-width="1"/><rect width="20" height="33" transform="translate(661 930)" fill="#dadada"/><line y1="117" transform="translate(671.5 963.5)" fill="none" stroke="#dadada" stroke-width="1"/><rect width="20" height="43" transform="translate(719 963)" fill="#dadada"/><line y1="74" transform="translate(729.5 1006.5)" fill="none" stroke="#dadada" stroke-width="1"/><rect width="20" height="33" transform="translate(777 930)" fill="#dadada"/><line y1="137" transform="translate(787.5 963.5)" fill="none" stroke="#dadada" stroke-width="1"/><rect width="20" height="62" transform="translate(835 868)" fill="#dadada"/><line y1="170" transform="translate(845.5 930.5)" fill="none" stroke="#dadada" stroke-width="1"/><rect width="20" height="59" transform="translate(893 809)" fill="#dadada"/><line y1="232" transform="translate(903.5 868.5)" fill="none" stroke="#dadada" stroke-width="1"/><rect width="20" height="54" transform="translate(951 755)" fill="#dadada"/><line x1="1" y1="291" transform="translate(960.5 809.5)" fill="none" stroke="#dadada" stroke-width="1"/><rect width="20" height="33" transform="translate(1009 809)" fill="#dadada"/><line y1="258" transform="translate(1019.5 842.5)" fill="none" stroke="#dadada" stroke-width="1"/><rect width="20" height="33" transform="translate(1067 842)" fill="#dadada"/><line y1="225" transform="translate(1077.5 875.5)" fill="none" stroke="#dadada" stroke-width="1"/><rect width="20" height="43" transform="translate(1125 875)" fill="#dadada"/><line y1="182" transform="translate(1135.5 918.5)" fill="none" stroke="#dadada" stroke-width="1"/><rect width="20" height="66" transform="translate(1183 809)" fill="#dadada"/><line y1="225" transform="translate(1193.5 875.5)" fill="none" stroke="#dadada" stroke-width="1"/><rect width="20" height="92" transform="translate(1241 717)" fill="#dadada"/><line y1="291" transform="translate(1251.5 809.5)" fill="none" stroke="#dadada" stroke-width="1"/><rect width="20" height="87" transform="translate(1299 661)" fill="#dadada"/><line y1="352" transform="translate(1309.5 748.5)" fill="none" stroke="#dadada" stroke-width="1"/><rect width="20" height="146" transform="translate(1357 531)" fill="#dadada"/><line y1="423" transform="translate(1367.5 677.5)" fill="none" stroke="#dadada" stroke-width="1"/><rect width="20" height="132" transform="translate(1415 415)" fill="#dadada"/><line y1="553" transform="translate(1425.5 547.5)" fill="none" stroke="#dadada" stroke-width="1"/><rect width="20" height="56" transform="translate(1473 366)" fill="#dadada"/><line y1="678" transform="translate(1483.5 422.5)" fill="none" stroke="#dadada" stroke-width="1"/><rect width="20" height="61" transform="translate(1531 334)" fill="#dadada"/><line y1="706" transform="translate(1541.5 394.5)" fill="none" stroke="#dadada" stroke-width="1"/><rect width="20" height="53" transform="translate(1589 301)" fill="#dadada"/><line y1="746" transform="translate(1599.5 354.5)" fill="none" stroke="#dadada" stroke-width="1"/><rect width="20" height="126" transform="translate(1647 195)" fill="#dadada"/><line y1="779" transform="translate(1657.5 321.5)" fill="none" stroke="#dadada" stroke-width="1"/><rect width="20" height="36" transform="translate(1705 177)" fill="#dadada"/><line y1="887" transform="translate(1715.5 213.5)" fill="none" stroke="#dadada" stroke-width="1"/><rect width="20" height="33" transform="translate(1763 155)" fill="#dadada"/><line y1="912" transform="translate(1773.5 188.5)" fill="none" stroke="#dadada" stroke-width="1"/><rect width="20" height="29" transform="translate(1821 126)" fill="#dadada"/><line y1="945" transform="translate(1831.5 155.5)" fill="none" stroke="#dadada" stroke-width="1"/><rect width="20" height="77" transform="translate(1879 49)" fill="#dadada"/><line y1="974" transform="translate(1889.5 126.5)" fill="none" stroke="#dadada" stroke-width="1"/></g></svg>