<svg xmlns="http://www.w3.org/2000/svg" width="223.832" height="116" viewBox="0 0 223.832 116"><g transform="translate(-1360.169 -419.5)"><path d="M10.619,51.237c1.7-2.317,6.354-6.234,6.893-9.3.389-2.21-1.294-4.085-2.27-4.964H5.5a5.5,5.5,0,0,1-5.5-5.5V5.5A5.5,5.5,0,0,1,5.5,0H166a5.5,5.5,0,0,1,5.5,5.5v25.97a5.5,5.5,0,0,1-5.5,5.5H29.394c.588,7.376-14.972,15.3-18.4,15.3C10.3,52.266,10.1,51.946,10.619,51.237Z" transform="translate(1411 421)" fill="#fff" stroke="#707070" stroke-width="3"/><text transform="translate(1421 448)" fill="#707070" font-size="21" font-family="Montserrat-SemiBold, Montserrat" font-weight="600"><tspan x="0" y="0">it is mooning?</tspan></text><g transform="translate(1361.669 480.791)"><circle cx="26.604" cy="26.604" r="26.604" fill="#1c75bc" stroke="#707070" stroke-width="3"/><path d="M40.622,15.08,37.233,25.69s-2.09,5.289-7.063,5.289H6.195l1.71-5.289H29.632l3.42-10.61h-21.7L13.036,9.79H36.885C42.111,9.79,40.622,15.08,40.622,15.08ZM7.05,17.93H19.909l-1.647,4.909H5.371Z" transform="translate(3.56 6.489)" fill="#fff" stroke="#707070" stroke-width="1" fill-rule="evenodd"/></g></g></svg>