<svg xmlns="http://www.w3.org/2000/svg" width="234.828" height="101.036" viewBox="0 0 234.828 101.036"><g transform="translate(-1148.673 -167.009)"><g transform="translate(1150.173 213.791)"><ellipse cx="26.377" cy="26.377" rx="26.377" ry="26.377" fill="#627eea" stroke="#707070" stroke-width="3"/><g transform="translate(14.837 6.594)"><path d="M7.5,0V14.623l12.359,5.523Z" transform="translate(4.863)" fill="#c5c6dd" stroke="#707070" stroke-width="1"/><path d="M12.361,0,0,20.145l12.361-5.523Z" fill="#fff" stroke="#707070" stroke-width="1"/><path d="M7.5,20.791v9.936l12.368-17.11Z" transform="translate(4.863 8.831)" fill="#c5c6dd" stroke="#707070" stroke-width="1"/><path d="M12.361,30.726V20.789L0,13.616Z" transform="translate(0 8.831)" fill="#fff" stroke="#707070" stroke-width="1"/><path d="M7.5,21.568l12.359-7.176L7.5,8.872Z" transform="translate(4.863 5.754)" fill="#939dc3" stroke="#707070" stroke-width="1"/><path d="M0,14.391l12.361,7.176V8.872Z" transform="translate(0 5.754)" fill="#ccd1d9" stroke="#707070" stroke-width="1"/></g></g><path d="M10.619,51.237c1.7-2.317,6.354-6.234,6.893-9.3.389-2.21-1.294-4.085-2.27-4.964H5.5a5.5,5.5,0,0,1-5.5-5.5V5.5A5.5,5.5,0,0,1,5.5,0H166a5.5,5.5,0,0,1,5.5,5.5v25.97a5.5,5.5,0,0,1-5.5,5.5H29.394c.588,7.376-14.972,15.3-18.4,15.3C10.3,52.266,10.1,51.946,10.619,51.237Z" transform="translate(1210.5 168.509)" fill="#fff" stroke="#707070" stroke-width="3"/><text transform="translate(1227 194)" fill="#707070" font-size="21" font-family="Montserrat-SemiBold, Montserrat" font-weight="600"><tspan x="0" y="0">should i sell?</tspan></text></g></svg>