<svg xmlns="http://www.w3.org/2000/svg" width="513" height="309" viewBox="0 0 513 309"><g transform="translate(-954 -239)"><g transform="translate(1083 534)" fill="#707070" stroke="#707070" stroke-width="3"><rect width="256" height="14" stroke="none"/><rect x="1.5" y="1.5" width="253" height="11" fill="none"/></g><g transform="translate(1148 505)" fill="#707070" stroke="#707070" stroke-width="3"><rect width="126" height="35" stroke="none"/><rect x="1.5" y="1.5" width="123" height="32" fill="none"/></g><g transform="translate(954 239)" fill="#fff" stroke="#707070" stroke-width="3"><rect width="513" height="273" rx="11" stroke="none"/><rect x="1.5" y="1.5" width="510" height="270" rx="9.5" fill="none"/></g><g transform="translate(961 248)" fill="#707070" stroke="#707070" stroke-width="1"><rect width="27" height="254" stroke="none"/><rect x="0.5" y="0.5" width="26" height="253" fill="none"/></g><rect width="223" height="253" transform="translate(1234 249)" fill="#e8e8e8"/><rect width="140" height="10" rx="5" transform="translate(995 261)" fill="#e8e8e8"/><rect width="27" height="10" rx="5" transform="translate(1251 364) rotate(90)" fill="#68caad"/><rect width="18" height="10" rx="5" transform="translate(1271 349) rotate(90)" fill="#68caad"/><rect width="17" height="10" rx="5" transform="translate(1291 335) rotate(90)" fill="#68caad"/><rect width="17" height="10" rx="5" transform="translate(1311 352) rotate(90)" fill="#e18888"/><rect width="21" height="10" rx="5" transform="translate(1331 337) rotate(90)" fill="#68caad"/><rect width="30" height="10" rx="5" transform="translate(1351 314) rotate(90)" fill="#68caad"/><rect width="34" height="10" rx="5" transform="translate(1371 284) rotate(90)" fill="#68caad"/><rect width="15" height="10" rx="5" transform="translate(1391 269) rotate(90)" fill="#68caad"/><rect width="17" height="10" rx="5" transform="translate(1411 284) rotate(90)" fill="#e18888"/><rect width="25" height="10" rx="5" transform="translate(1431 301) rotate(90)" fill="#e18888"/><rect width="15" height="10" rx="5" transform="translate(1451 326) rotate(90)" fill="#e18888"/><rect width="200" height="10" rx="5" transform="translate(995 291)" fill="#e8e8e8"/><rect width="84" height="10" rx="5" transform="translate(995 321)" fill="#e8e8e8"/><rect width="140" height="10" rx="5" transform="translate(995 351)" fill="#e8e8e8"/><rect width="30" height="10" rx="5" transform="translate(995 381)" fill="#e8e8e8"/><rect width="88" height="10" rx="5" transform="translate(995 411)" fill="#e8e8e8"/><rect width="167" height="10" rx="5" transform="translate(995 441)" fill="#e8e8e8"/><rect width="189" height="20" rx="10" transform="translate(995 477)" fill="#e8e8e8"/><rect width="34" height="20" rx="10" transform="translate(1195 477)" fill="#e8e8e8"/></g></svg>